HIERARCHY
ROOT Hips
{
	OFFSET	0.000000	0.000000	0.000000
	CHANNELS 6 Xposition Yposition Zposition Zrotation Xrotation Yrotation
	JOINT LeftUpLeg
	{
		OFFSET	12.830505	-7.049846	-1.643436
		CHANNELS 3 Zrotation Xrotation Yrotation
		JOINT LeftLeg
		{
			OFFSET	0.620834	-39.957500	-1.919341
			CHANNELS 3 Zrotation Xrotation Yrotation
			JOINT LeftFoot
			{
				OFFSET	-0.413890	-44.704761	-3.870325
				CHANNELS 3 Zrotation Xrotation Yrotation
				JOINT LeftFootHeel
				{
					OFFSET	0.164738	-8.918193	-6.555130
					CHANNELS 3 Zrotation Xrotation Yrotation
					End Site
					{
						OFFSET	-0.604053	0.000000	21.044330
					}
				}
			}
		}
	}
	JOINT RightUpLeg
	{
		OFFSET	-12.830505	-7.049846	-1.643436
		CHANNELS 3 Zrotation Xrotation Yrotation
		JOINT RightLeg
		{
			OFFSET	-0.620834	-39.957500	-1.919341
			CHANNELS 3 Zrotation Xrotation Yrotation
			JOINT RightFoot
			{
				OFFSET	0.413890	-44.704761	-3.870325
				CHANNELS 3 Zrotation Xrotation Yrotation
				JOINT RightFootHeel
				{
					OFFSET	-0.164738	-8.918193	-6.555130
					CHANNELS 3 Zrotation Xrotation Yrotation
					End Site
					{
						OFFSET	0.604053	0.000000	21.044330
					}
				}
			}
		}
	}
	JOINT Spine
	{
		OFFSET	0.000000	12.498170	1.820647
		CHANNELS 3 Zrotation Xrotation Yrotation
		JOINT Spine1
		{
			OFFSET	0.000000	7.620000	0.000000
			CHANNELS 3 Zrotation Xrotation Yrotation
			JOINT LeftShoulder
			{
				OFFSET	9.167800	29.136339	-5.551221
				CHANNELS 3 Zrotation Xrotation Yrotation
				JOINT LeftArm
				{
					OFFSET	12.133453	-3.880866	1.461963
					CHANNELS 3 Zrotation Xrotation Yrotation
					JOINT LeftForeArm
					{
						OFFSET	2.507115	-31.664908	-1.069404
						CHANNELS 3 Zrotation Xrotation Yrotation
						JOINT LeftHand
						{
							OFFSET	4.116172	-24.512624	5.009439
							CHANNELS 3 Zrotation Xrotation Yrotation
							End Site
							{
								OFFSET	-0.213136	-10.931856	2.182134
							}
						}
					}
				}
			}
			JOINT RightShoulder
			{
				OFFSET	-9.167800	29.136339	-5.551221
				CHANNELS 3 Zrotation Xrotation Yrotation
				JOINT RightArm
				{
					OFFSET	-12.133453	-3.880866	1.461963
					CHANNELS 3 Zrotation Xrotation Yrotation
					JOINT RightForeArm
					{
						OFFSET	-2.507115	-31.664908	-1.069404
						CHANNELS 3 Zrotation Xrotation Yrotation
						JOINT RightHand
						{
							OFFSET	-4.116172	-24.512624	5.009439
							CHANNELS 3 Zrotation Xrotation Yrotation
							End Site
							{
								OFFSET	0.213136	-10.931856	2.182134
							}
						}
					}
				}
			}
			JOINT Neck
			{
				OFFSET	0.000000	32.926272	-3.635654
				CHANNELS 3 Zrotation Xrotation Yrotation
				JOINT Head
				{
					OFFSET	0.000000	12.481178	4.646143
					CHANNELS 3 Zrotation Xrotation Yrotation
					End Site
					{
						OFFSET	0.000000	17.715204	-2.222063
					}
				}
			}
		}
	}
}
MOTION
Frames:     11
Frame Time: 0.016667
0.000000	99.402158	0.000000	-6.337100	7.963821	46.628822	11.649037	-28.180851	19.828421	4.913535	28.731197	-3.159025	-10.807503	-4.551302	-7.261217	0.	0.	0.	-19.866562	-26.167040	-18.791752	-0.324013	28.107695	0.679071	7.796298	-4.136197	-6.825212	0.	0.	0.	0.000000	0.000000	-0.000001	-6.696657	25.517847	6.673227	17.175293	-4.917734	4.978980	-35.722160	-46.691219	-35.721481	-105.612541	-35.011887	-76.582108	-1.772421	-3.999139	-0.142393	-11.547515	-3.715722	0.634847	-42.784359	-16.288269	-49.865036	-24.153971	-120.536308	-40.077511	-11.975887	1.500311	11.560814	-4.209753	-0.468864	-18.260962	19.531145	-9.641877	-14.392664	
0.012144	99.397972	0.006126	-6.337100	7.963821	46.628822	11.649037	-28.180851	19.828421	4.927559	28.745108	-3.178909	-10.818197	-4.568076	-7.251011	0.	0.	0.	-19.866562	-26.167040	-18.791752	-0.335078	28.122690	0.689812	7.805627	-4.151916	-6.828645	0.	0.	0.	0.000000	0.000000	-0.000001	-6.696657	25.517847	6.673227	17.175293	-4.917734	4.978980	-35.722160	-46.691219	-35.721481	-105.612541	-35.011887	-76.582108	-1.772421	-3.999139	-0.142393	-11.547515	-3.715722	0.634847	-42.778252	-16.280409	-49.863373	-24.200073	-120.511574	-40.118359	-11.975453	1.457486	11.552951	-4.209753	-0.468864	-18.260962	19.535343	-9.645474	-14.396630	
0.018258	99.395860	0.009215	-6.337100	7.963821	46.628822	11.649037	-28.180851	19.828421	4.940700	28.757668	-3.193965	-10.828510	-4.582664	-7.244891	0.	0.	0.	-19.866562	-26.167040	-18.791752	-0.340653	28.130245	0.695214	7.810330	-4.159839	-6.830365	0.	0.	0.	0.000000	0.000000	-0.000001	-6.696657	25.517847	6.673227	17.175293	-4.917734	4.978980	-35.722160	-46.691219	-35.721481	-105.612541	-35.011887	-76.582108	-1.772421	-3.999139	-0.142393	-11.547515	-3.715722	0.634847	-42.771667	-16.271952	-49.861599	-24.203802	-120.513992	-40.122227	-11.976014	1.447873	11.551619	-4.209753	-0.468864	-18.260962	19.537346	-9.647189	-14.398522	
0.042537	99.387488	0.021457	-6.337100	7.963821	46.628822	11.649037	-28.180851	19.828421	4.946638	28.786158	-3.193434	-10.832829	-4.610249	-7.253646	0.	0.	0.	-19.866562	-26.167040	-18.791752	-0.362795	28.160223	0.716722	7.828980	-4.191281	-6.837226	0.	0.	0.	0.000000	0.000000	-0.000001	-6.696657	25.517847	6.673227	17.175293	-4.917734	4.978980	-35.722160	-46.691219	-35.721481	-105.612541	-35.011887	-76.582108	-1.773162	-3.997505	-0.132334	-11.547515	-3.715722	0.634847	-42.754383	-16.249731	-49.856934	-24.205296	-120.524643	-40.124779	-11.975871	1.431449	11.549742	-4.209753	-0.468864	-18.260962	19.552841	-9.622749	-14.400976	
0.054140	99.383477	0.027305	-6.337100	7.963821	46.628822	11.649037	-28.180851	19.828421	4.947619	28.808239	-3.191274	-10.833001	-4.631456	-7.260406	0.	0.	0.	-19.866562	-26.167040	-18.791752	-0.373385	28.174543	0.726998	7.837893	-4.206299	-6.840501	0.	0.	0.	0.000000	0.000000	-0.000001	-6.696657	25.517847	6.673227	17.175293	-4.917734	4.978980	-35.722160	-46.691219	-35.721481	-105.612541	-35.011887	-76.582108	-1.771076	-3.995253	-0.113672	-11.547515	-3.715722	0.634847	-42.742596	-16.234543	-49.853748	-24.214613	-120.536758	-40.132965	-11.968651	1.427023	11.554194	-4.207105	-0.457228	-18.257532	19.565041	-9.617770	-14.401963	
0.065801	99.379446	0.033191	-6.337100	7.963821	46.628822	11.649078	-28.179909	19.834705	4.951659	28.830759	-3.195924	-10.833134	-4.654434	-7.267745	0.	0.	0.	-19.866562	-26.167040	-18.791752	-0.384036	28.188955	0.737337	7.846857	-4.221423	-6.843787	0.	0.	0.	0.000000	0.000000	-0.000001	-6.696657	25.517847	6.673227	17.175293	-4.917734	4.978980	-35.722160	-46.691219	-35.721481	-105.612541	-35.011887	-76.582108	-1.771076	-3.995253	-0.113672	-11.547515	-3.715722	0.634847	-42.725227	-16.212145	-49.849049	-24.212635	-120.547585	-40.122414	-11.947432	1.419270	11.551448	-4.201631	-0.433195	-18.250460	19.567640	-9.643240	-14.400354	
0.065801	99.379446	0.033191	-6.337100	7.963821	46.628822	11.649078	-28.179909	19.834705	4.951659	28.830759	-3.195924	-10.833134	-4.654434	-7.267745	0.	0.	0.	-19.866562	-26.167040	-18.791752	-0.384036	28.188955	0.737337	7.846857	-4.221423	-6.843787	0.	0.	0.	0.000000	0.000000	-0.000001	-6.696657	25.517847	6.673227	17.175293	-4.917734	4.978980	-35.722160	-46.691219	-35.721481	-105.612541	-35.011887	-76.582108	-1.764728	-3.994947	-0.102030	-11.547515	-3.715722	0.634847	-42.725227	-16.212145	-49.849049	-24.212635	-120.547585	-40.122414	-11.947432	1.419270	11.551448	-4.201631	-0.433195	-18.250460	19.578400	-9.626683	-14.402739	
0.085248	99.372683	0.040773	-6.337100	7.963821	46.628822	11.649078	-28.179909	19.834705	4.954915	28.868761	-3.192974	-10.834812	-4.691008	-7.279384	0.	0.	0.	-19.870090	-26.166481	-18.793257	-0.397071	28.211391	0.753051	7.860512	-4.244442	-6.848800	0.	0.	0.	0.000000	0.000000	-0.000001	-6.696657	25.517847	6.673227	17.175293	-4.917734	4.978980	-35.701557	-46.681915	-35.704014	-105.632652	-35.025509	-76.602921	-1.762715	-3.986989	-0.068338	-11.547515	-3.715722	0.634847	-42.698063	-16.177105	-49.841709	-24.202181	-120.568413	-40.098934	-11.911723	1.416180	11.545310	-4.189789	-0.381147	-18.235134	19.598824	-9.658388	-14.401644	
0.104537	99.365862	0.040845	-6.337100	7.963821	46.628822	11.649130	-28.178404	19.844721	4.963524	28.892704	-3.202866	-10.837279	-4.716290	-7.287461	0.	0.	0.	-19.885456	-26.164043	-18.799751	-0.394088	28.228376	0.763445	7.869752	-4.260033	-6.852187	0.	0.	0.	0.000000	0.000000	-0.000001	-6.696657	25.517847	6.673227	17.175293	-4.917734	4.978980	-35.689281	-46.676373	-35.693611	-105.645233	-35.036694	-76.615807	-1.761117	-3.980717	-0.041062	-11.547515	-3.715722	0.634847	-42.680431	-16.154343	-49.836948	-24.196049	-120.583374	-40.094524	-11.885213	1.412188	11.540357	-4.182759	-0.350227	-18.226038	19.616394	-9.668530	-14.401908	
0.123421	99.358924	0.043042	-6.337100	7.963821	46.628822	11.649023	-28.180031	19.854950	4.974939	28.920248	-3.213948	-10.840862	-4.742349	-7.295729	0.	0.	0.	-19.901688	-26.161478	-18.806616	-0.387503	28.247715	0.772613	7.876493	-4.277799	-6.855409	0.	0.	0.	0.000000	0.000000	-0.000001	-6.696657	25.517847	6.673227	17.175293	-4.917734	4.978980	-35.689281	-46.676373	-35.693611	-105.648125	-35.051723	-76.618073	-1.776369	-3.972238	-0.023556	-11.547515	-3.715722	0.634847	-42.668621	-16.139097	-49.833763	-24.210709	-120.583328	-40.108734	-11.860318	1.396610	11.537405	-4.176166	-0.321264	-18.217529	19.630558	-9.681643	-14.401760	
0.131432	99.355581	0.047768	-6.337100	7.963821	46.628822	11.648695	-28.186365	19.855734	4.989732	28.941704	-3.219360	-10.850499	-4.757956	-7.300605	0.	0.	0.	-19.909872	-26.160179	-18.810076	-0.379647	28.260506	0.775158	7.875880	-4.289731	-6.856695	0.	0.	0.	0.000000	0.000000	-0.000001	-6.696657	25.517847	6.673227	17.175293	-4.917734	4.978980	-35.689281	-46.676373	-35.693611	-105.650864	-35.065990	-76.620224	-1.791058	-3.963721	-0.004019	-11.547515	-3.715722	0.634847	-42.668446	-16.131857	-49.834148	-24.217632	-120.579849	-40.119328	-11.850134	1.388246	11.540694	-4.173082	-0.307713	-18.213549	19.632021	-9.696002	-14.400836	
